<svg xmlns="http://www.w3.org/2000/svg" viewBox="0 0 158.48 158.22"><defs><style>.cls-1{fill:#5f23a8;}</style></defs><title>Ativo 4</title><g id="Camada_2" data-name="Camada 2"><g id="Camada_1-2" data-name="Camada 1"><path id="Retângulo_7" data-name="Retângulo 7" class="cls-1" d="M6,0H73.61a5.81,5.81,0,0,1,5.81,5.82V79.2H.22V5.82A5.82,5.82,0,0,1,6,0Z"/><circle id="Elipse_1" data-name="Elipse 1" class="cls-1" cx="125.42" cy="138.41" r="19.81"/><circle id="Elipse_2" data-name="Elipse 2" class="cls-1" cx="33.07" cy="138.41" r="19.81"/><path id="Caminho_4" data-name="Caminho 4" class="cls-1" d="M92.63,92.69,92.3,62.58a9.91,9.91,0,0,1,9.8-10h26.28a6.62,6.62,0,0,1,5.48,2.92L156.8,89.68a9.88,9.88,0,0,1,1.68,5.52v26.71a9.9,9.9,0,0,1-9.9,9.9H0V92.69Zm13-.82h38.9L128,65.77l-22.3.23Z"/></g></g></svg>