<svg xmlns="http://www.w3.org/2000/svg" viewBox="0 0 129.98 157.3"><defs><style>.cls-1{fill:#5f23a8;}</style></defs><title>Ativo 3</title><g id="Camada_2" data-name="Camada 2"><g id="Camada_1-2" data-name="Camada 1"><path id="Caminho_5" data-name="Caminho 5" class="cls-1" d="M115.9,17.86V144.42h-97V157.3H130V17.86Z"/><path id="Caminho_6" data-name="Caminho 6" class="cls-1" d="M0,0V139.44H111.09V0ZM14.75,17.65a4.34,4.34,0,0,1,4.34-4.34H92a4.34,4.34,0,0,1,4.34,4.34h0A4.34,4.34,0,0,1,92,22H19.1a4.34,4.34,0,0,1-4.34-4.34h0Zm4.34,16.87H92a4.34,4.34,0,1,1,0,8.68H19.1a4.34,4.34,0,0,1,0-8.68ZM14.75,60.08a4.34,4.34,0,0,1,4.34-4.34H92a4.34,4.34,0,1,1,0,8.68H19.1a4.35,4.35,0,0,1-4.35-4.33ZM98.9,119.35a14.57,14.57,0,0,1-8.33,3.23V126a1.17,1.17,0,0,1-1.17,1.18h-3a1.19,1.19,0,0,1-.84-.32,1.11,1.11,0,0,1-.34-.86v-3.45a16.22,16.22,0,0,1-6.09-1.7,10.23,10.23,0,0,1-3.85-3.36,8.31,8.31,0,0,1-1.4-4.26.94.94,0,0,1,.32-.73,1.07,1.07,0,0,1,.76-.3h4.39a1.52,1.52,0,0,1,.86.23,2.11,2.11,0,0,1,.62.71,5.3,5.3,0,0,0,2.29,2.81A8.89,8.89,0,0,0,88,117.07a9.71,9.71,0,0,0,5.23-1.16A3.65,3.65,0,0,0,95,112.68a3,3,0,0,0-.88-2.27,7.36,7.36,0,0,0-2.71-1.56q-1.83-.66-5.37-1.55a20.49,20.49,0,0,1-8.51-3.67A8.1,8.1,0,0,1,74.8,97.1a8.62,8.62,0,0,1,2.79-6.49,13.07,13.07,0,0,1,7.62-3.23V84a1.15,1.15,0,0,1,1.18-1.18h3A1.17,1.17,0,0,1,90.59,84v3.52a13.63,13.63,0,0,1,5.49,1.9,10.87,10.87,0,0,1,3.5,3.38,7.82,7.82,0,0,1,1.31,3.74,1,1,0,0,1-1,1H95.28a1.46,1.46,0,0,1-1.48-.94A3.83,3.83,0,0,0,91.88,94a9.13,9.13,0,0,0-8.49,0,3.39,3.39,0,0,0-1.57,3,3.25,3.25,0,0,0,.79,2.27,6.53,6.53,0,0,0,2.49,1.58,42.11,42.11,0,0,0,4.9,1.53,34.31,34.31,0,0,1,6.93,2.21,9.13,9.13,0,0,1,3.82,3.11,8.55,8.55,0,0,1,1.23,4.78,8.77,8.77,0,0,1-3.08,6.92Z"/></g></g></svg>