<svg xmlns="http://www.w3.org/2000/svg" viewBox="0 0 200.62 166.7"><defs><style>.cls-1{fill:#5f23a8;}</style></defs><title>Ativo 2</title><g id="Camada_2" data-name="Camada 2"><g id="Camada_1-2" data-name="Camada 1"><path id="Caminho_9" data-name="Caminho 9" class="cls-1" d="M196.47,38.21l-58-36.82a9,9,0,0,0-9.59,0l-58,36.82a8.87,8.87,0,0,0-3.2,3.64c-.31-.05-.63-.08-.94-.1H33.29a8.38,8.38,0,0,0,0,16.74H66.76V75.71H8.68a8.37,8.37,0,0,0-.62,16.73c.21,0,.42,0,.62,0H66.76v16.25H33.51a8.37,8.37,0,0,0,0,16.73H66.76a7.35,7.35,0,0,0,1.14-.12,9.05,9.05,0,0,0,3,3.18l58,36.83a9,9,0,0,0,9.59,0l58-36.83a8.91,8.91,0,0,0,4.15-7.54V45.77A8.93,8.93,0,0,0,196.47,38.21ZM80.85,116.13V91.92l15.37,9,0,24.23ZM188,55.36l-47.5,30.31a12.35,12.35,0,0,1-2.43,1.17v61a4.19,4.19,0,0,1-8.37,0V87a12.81,12.81,0,0,1-2.86-1.33L78.66,56.45A4.19,4.19,0,0,1,83,49.29L102.37,61,155.52,27.3a4.18,4.18,0,1,1,4.74,6.89l-.25.16L110.36,65.88l20.92,12.68a4.35,4.35,0,0,0,4.76,0L183.53,48.3a4.18,4.18,0,1,1,4.65,7l-.15.1Z"/></g></g></svg>